# xmcd
#
# Track frame offsets:
#	150
#	10925
#	20497
#	33535
#	42950
#	52225
#	63220
#	72542
#	83827
#	94665
#	104147
#	116520
#
# Disc length: 1690 seconds
#
# Revision: 3037294793
# Processed by: cddbd v1.5.2PL0 Copyright (c) Steve Scherf et al.
# Submitted via: EZCDAudioConverter 8.3.2.1
#
DISCID=a506980c
DTITLE=WAYLON JENNINGS - THE EARLY YEARS
DYEAR=1989
DGENRE=Country
TTITLE0=THE ONLY DADDY THAT'LL WALK THE LINE
TTITLE1=THAT'S THE CHANCE I'LL HAVE TO TAKE
TTITLE2=LOVE OF THE COMMON PEOPLE
TTITLE3=STOP THE WORLD AND LET ME OFF
TTITLE4=TIME TO BUM AGAIN
TTITLE5=ANITA YOU'RE DREAMING
TTITLE6=BROWN EYED HANDSOME MAN
TTITLE7=FOR LOVIN' ME
TTITLE8=MENTAL REVENGE
TTITLE9=LEAVIN' TOWN
TTITLE10=I'M A MAN OF CONSTANT SORROW
TTITLE11=YOURS LOVE
EXTD=
EXTT0=
EXTT1=
EXTT2=
EXTT3=
EXTT4=
EXTT5=
EXTT6=
EXTT7=
EXTT8=
EXTT9=
EXTT10=
EXTT11=
PLAYORDER=
